<svg width="498" height="137" viewBox="0 0 498 137" fill="none" xmlns="http://www.w3.org/2000/svg">
<g opacity="0.9">
<path d="M37.0135 117.159C53.5574 105.662 101.871 80.3137 174.552 92.7637C265.404 108.326 289.071 102.999 313.774 88.5576C341.113 72.5746 355.834 25.0458 405.887 28.4107C453.416 31.6059 466.454 96.9698 498 76.7806" stroke="white"/>
<circle cx="268.708" cy="101.427" r="4.32625" fill="white"/>
<circle cx="37.9749" cy="116.809" r="4.32625" fill="white"/>
<circle cx="103.349" cy="91.8126" r="4.32625" fill="white"/>
<circle cx="475.407" cy="77.3917" r="4.32625" fill="white"/>
<circle cx="399.458" cy="28.3609" r="4.32625" fill="white"/>
<g clip-path="url(#clip0_254_5036)">
<path d="M37.9749 89.0786C36.1343 89.0786 34.369 89.8098 33.0675 91.1113C31.766 92.4128 31.0349 94.178 31.0349 96.0186C31.0349 99.6842 37.2178 107.438 37.4828 107.773C37.5419 107.846 37.6168 107.906 37.702 107.947C37.7872 107.987 37.8804 108.009 37.9749 108.009C38.0694 108.009 38.1626 107.987 38.2478 107.947C38.333 107.906 38.4079 107.846 38.467 107.773C38.732 107.438 44.9149 99.6842 44.9149 96.0186C44.9149 94.178 44.1837 92.4128 42.8822 91.1113C41.5807 89.8098 39.8155 89.0786 37.9749 89.0786ZM37.9749 97.9114C37.4758 97.9114 36.9878 97.7634 36.5728 97.4861C36.1578 97.2088 35.8343 96.8146 35.6433 96.3535C35.4523 95.8924 35.4024 95.3849 35.4997 94.8954C35.5971 94.4059 35.8375 93.9562 36.1904 93.6032C36.5433 93.2503 36.993 93.01 37.4825 92.9126C37.9721 92.8152 38.4795 92.8652 38.9406 93.0562C39.4018 93.2472 39.7959 93.5707 40.0732 93.9857C40.3505 94.4007 40.4985 94.8886 40.4985 95.3877C40.4985 96.057 40.2326 96.6989 39.7594 97.1722C39.2861 97.6455 38.6442 97.9114 37.9749 97.9114Z" fill="white"/>
</g>
<g clip-path="url(#clip1_254_5036)">
<path d="M269.189 73.6963C267.349 73.6963 265.583 74.4275 264.282 75.729C262.98 77.0305 262.249 78.7957 262.249 80.6363C262.249 84.3019 268.432 92.0558 268.697 92.3902C268.756 92.4639 268.831 92.5234 268.916 92.5642C269.001 92.6051 269.095 92.6263 269.189 92.6263C269.284 92.6263 269.377 92.6051 269.462 92.5642C269.547 92.5234 269.622 92.4639 269.681 92.3902C269.946 92.0558 276.129 84.3019 276.129 80.6363C276.129 78.7957 275.398 77.0305 274.097 75.729C272.795 74.4275 271.03 73.6963 269.189 73.6963ZM269.189 82.5291C268.69 82.5291 268.202 82.3811 267.787 82.1037C267.372 81.8264 267.049 81.4323 266.858 80.9712C266.667 80.51 266.617 80.0026 266.714 79.5131C266.811 79.0235 267.052 78.5739 267.405 78.2209C267.758 77.868 268.207 77.6276 268.697 77.5303C269.186 77.4329 269.694 77.4829 270.155 77.6739C270.616 77.8649 271.01 78.1883 271.288 78.6033C271.565 79.0184 271.713 79.5063 271.713 80.0054C271.713 80.6747 271.447 81.3166 270.974 81.7899C270.5 82.2632 269.858 82.5291 269.189 82.5291Z" fill="white"/>
</g>
<path d="M399.457 0.630859C397.617 0.630859 395.852 1.36204 394.55 2.66355C393.249 3.96506 392.517 5.73028 392.517 7.57089C392.517 11.2365 398.7 18.9904 398.965 19.3248C399.024 19.3985 399.099 19.4579 399.185 19.4988C399.27 19.5397 399.363 19.5609 399.457 19.5609C399.552 19.5609 399.645 19.5397 399.73 19.4988C399.816 19.4579 399.89 19.3985 399.95 19.3248C400.215 18.9904 406.398 11.2365 406.398 7.57089C406.398 5.73028 405.666 3.96506 404.365 2.66355C403.063 1.36204 401.298 0.630859 399.457 0.630859ZM399.457 9.46363C398.958 9.46363 398.47 9.31562 398.055 9.03832C397.64 8.76102 397.317 8.36688 397.126 7.90574C396.935 7.4446 396.885 6.93718 396.982 6.44764C397.08 5.9581 397.32 5.50843 397.673 5.15549C398.026 4.80255 398.476 4.5622 398.965 4.46482C399.455 4.36745 399.962 4.41742 400.423 4.60843C400.884 4.79944 401.279 5.12291 401.556 5.53792C401.833 5.95293 401.981 6.44085 401.981 6.93998C401.981 7.60929 401.715 8.25119 401.242 8.72447C400.769 9.19775 400.127 9.46363 399.457 9.46363Z" fill="white"/>
<path d="M0.66 134V128.77H5.16V134H4.06V129.74H1.76V134H0.66ZM6.39008 134V128.77H9.73008V129.74H7.49008V134H6.39008ZM11.7 134V129.74H9.97V128.77H14.54V129.74H12.8V134H11.7ZM14.8022 134V132.72H15.7122V134H14.8022ZM19.4018 134V126.9H20.5218V129.87H21.3518L23.5818 126.9H24.8618L22.2518 130.34L25.0518 134H23.6818L21.3518 130.9H20.5218V134H19.4018ZM25.4417 132.47C25.4417 132.137 25.5351 131.847 25.7217 131.6C25.9151 131.347 26.1784 131.153 26.5117 131.02C26.8451 130.88 27.2317 130.81 27.6717 130.81C27.9051 130.81 28.1417 130.827 28.3817 130.86C28.6284 130.893 28.8451 130.947 29.0317 131.02V130.69C29.0317 130.323 28.9217 130.037 28.7017 129.83C28.4817 129.623 28.1651 129.52 27.7517 129.52C27.4584 129.52 27.1817 129.573 26.9217 129.68C26.6617 129.78 26.3851 129.923 26.0917 130.11L25.7217 129.37C26.0684 129.137 26.4151 128.963 26.7617 128.85C27.1151 128.737 27.4851 128.68 27.8717 128.68C28.5717 128.68 29.1217 128.867 29.5217 129.24C29.9284 129.607 30.1317 130.13 30.1317 130.81V132.76C30.1317 132.887 30.1517 132.977 30.1917 133.03C30.2384 133.083 30.3151 133.113 30.4217 133.12V134C30.3217 134.02 30.2317 134.033 30.1517 134.04C30.0717 134.047 30.0051 134.05 29.9517 134.05C29.7184 134.05 29.5417 133.993 29.4217 133.88C29.3017 133.767 29.2317 133.633 29.2117 133.48L29.1817 133.18C28.9551 133.473 28.6651 133.7 28.3117 133.86C27.9584 134.02 27.6017 134.1 27.2417 134.1C26.8951 134.1 26.5851 134.03 26.3117 133.89C26.0384 133.743 25.8251 133.547 25.6717 133.3C25.5184 133.053 25.4417 132.777 25.4417 132.47ZM28.7717 132.79C28.8517 132.703 28.9151 132.617 28.9617 132.53C29.0084 132.443 29.0317 132.367 29.0317 132.3V131.7C28.8451 131.627 28.6484 131.573 28.4417 131.54C28.2351 131.5 28.0317 131.48 27.8317 131.48C27.4317 131.48 27.1051 131.56 26.8517 131.72C26.6051 131.88 26.4817 132.1 26.4817 132.38C26.4817 132.533 26.5217 132.68 26.6017 132.82C26.6884 132.96 26.8084 133.073 26.9617 133.16C27.1217 133.247 27.3184 133.29 27.5517 133.29C27.7917 133.29 28.0217 133.243 28.2417 133.15C28.4617 133.057 28.6384 132.937 28.7717 132.79ZM31.3662 134V128.77H34.1662C34.4996 128.77 34.7729 128.833 34.9862 128.96C35.2062 129.08 35.3696 129.237 35.4762 129.43C35.5829 129.617 35.6362 129.823 35.6362 130.05C35.6362 130.337 35.5696 130.59 35.4362 130.81C35.3029 131.03 35.1062 131.197 34.8462 131.31C35.1462 131.397 35.3896 131.55 35.5762 131.77C35.7696 131.983 35.8662 132.26 35.8662 132.6C35.8662 132.907 35.7929 133.167 35.6462 133.38C35.4996 133.587 35.2896 133.743 35.0162 133.85C34.7496 133.95 34.4362 134 34.0762 134H31.3662ZM32.4062 133.24H34.0462C34.1862 133.24 34.3129 133.207 34.4262 133.14C34.5462 133.067 34.6396 132.973 34.7062 132.86C34.7729 132.74 34.8062 132.613 34.8062 132.48C34.8062 132.333 34.7729 132.203 34.7062 132.09C34.6462 131.977 34.5596 131.887 34.4462 131.82C34.3396 131.753 34.2129 131.72 34.0662 131.72H32.4062V133.24ZM32.4062 131.01H33.8862C34.0262 131.01 34.1496 130.977 34.2562 130.91C34.3629 130.837 34.4462 130.74 34.5062 130.62C34.5662 130.5 34.5962 130.373 34.5962 130.24C34.5962 130.047 34.5329 129.88 34.4062 129.74C34.2796 129.6 34.1129 129.53 33.9062 129.53H32.4062V131.01ZM36.4331 132.47C36.4331 132.137 36.5265 131.847 36.7131 131.6C36.9065 131.347 37.1698 131.153 37.5031 131.02C37.8365 130.88 38.2231 130.81 38.6631 130.81C38.8965 130.81 39.1331 130.827 39.3731 130.86C39.6198 130.893 39.8365 130.947 40.0231 131.02V130.69C40.0231 130.323 39.9131 130.037 39.6931 129.83C39.4731 129.623 39.1565 129.52 38.7431 129.52C38.4498 129.52 38.1731 129.573 37.9131 129.68C37.6531 129.78 37.3765 129.923 37.0831 130.11L36.7131 129.37C37.0598 129.137 37.4065 128.963 37.7531 128.85C38.1065 128.737 38.4765 128.68 38.8631 128.68C39.5631 128.68 40.1131 128.867 40.5131 129.24C40.9198 129.607 41.1231 130.13 41.1231 130.81V132.76C41.1231 132.887 41.1431 132.977 41.1831 133.03C41.2298 133.083 41.3065 133.113 41.4131 133.12V134C41.3131 134.02 41.2231 134.033 41.1431 134.04C41.0631 134.047 40.9965 134.05 40.9431 134.05C40.7098 134.05 40.5331 133.993 40.4131 133.88C40.2931 133.767 40.2231 133.633 40.2031 133.48L40.1731 133.18C39.9465 133.473 39.6565 133.7 39.3031 133.86C38.9498 134.02 38.5931 134.1 38.2331 134.1C37.8865 134.1 37.5765 134.03 37.3031 133.89C37.0298 133.743 36.8165 133.547 36.6631 133.3C36.5098 133.053 36.4331 132.777 36.4331 132.47ZM39.7631 132.79C39.8431 132.703 39.9065 132.617 39.9531 132.53C39.9998 132.443 40.0231 132.367 40.0231 132.3V131.7C39.8365 131.627 39.6398 131.573 39.4331 131.54C39.2265 131.5 39.0231 131.48 38.8231 131.48C38.4231 131.48 38.0965 131.56 37.8431 131.72C37.5965 131.88 37.4731 132.1 37.4731 132.38C37.4731 132.533 37.5131 132.68 37.5931 132.82C37.6798 132.96 37.7998 133.073 37.9531 133.16C38.1131 133.247 38.3098 133.29 38.5431 133.29C38.7831 133.29 39.0131 133.243 39.2331 133.15C39.4531 133.057 39.6298 132.937 39.7631 132.79ZM41.9377 134.05V133.07C42.1043 133.07 42.2543 133.03 42.3877 132.95C42.521 132.863 42.6377 132.723 42.7377 132.53C42.8377 132.33 42.9177 132.053 42.9777 131.7C43.0377 131.347 43.0777 130.897 43.0977 130.35L43.1677 128.77H46.8977V134H45.7977V129.74H44.1377L44.1177 130.45C44.091 131.15 44.0277 131.733 43.9277 132.2C43.8277 132.66 43.6877 133.027 43.5077 133.3C43.3343 133.567 43.1143 133.76 42.8477 133.88C42.5877 133.993 42.2843 134.05 41.9377 134.05ZM50.487 134.1C50.0804 134.1 49.7104 134.03 49.377 133.89C49.0504 133.743 48.767 133.547 48.527 133.3C48.287 133.047 48.1004 132.76 47.967 132.44C47.8404 132.113 47.777 131.767 47.777 131.4C47.777 130.907 47.8904 130.457 48.117 130.05C48.3437 129.637 48.6604 129.307 49.067 129.06C49.4737 128.807 49.9504 128.68 50.497 128.68C51.0437 128.68 51.5137 128.807 51.907 129.06C52.307 129.307 52.617 129.633 52.837 130.04C53.057 130.447 53.167 130.883 53.167 131.35C53.167 131.43 53.1637 131.507 53.157 131.58C53.1504 131.647 53.1437 131.703 53.137 131.75H48.947C48.967 132.057 49.0504 132.327 49.197 132.56C49.3504 132.787 49.5437 132.967 49.777 133.1C50.0104 133.227 50.2604 133.29 50.527 133.29C50.8204 133.29 51.097 133.217 51.357 133.07C51.6237 132.923 51.8037 132.73 51.897 132.49L52.837 132.76C52.7237 133.013 52.5504 133.243 52.317 133.45C52.0904 133.65 51.8204 133.81 51.507 133.93C51.1937 134.043 50.8537 134.1 50.487 134.1ZM48.917 131.02H52.077C52.057 130.72 51.9704 130.457 51.817 130.23C51.6704 129.997 51.4804 129.817 51.247 129.69C51.0204 129.557 50.767 129.49 50.487 129.49C50.2137 129.49 49.9604 129.557 49.727 129.69C49.5004 129.817 49.3137 129.997 49.167 130.23C49.0204 130.457 48.937 130.72 48.917 131.02ZM56.9343 134.1C56.5143 134.1 56.1443 134 55.8243 133.8C55.5043 133.6 55.251 133.34 55.0643 133.02V136.13H53.9643V128.77H54.9343V129.71C55.1343 129.397 55.3943 129.147 55.7143 128.96C56.0343 128.773 56.391 128.68 56.7843 128.68C57.1443 128.68 57.4743 128.753 57.7743 128.9C58.0743 129.04 58.3343 129.237 58.5543 129.49C58.7743 129.743 58.9443 130.033 59.0643 130.36C59.191 130.68 59.2543 131.02 59.2543 131.38C59.2543 131.88 59.1543 132.337 58.9543 132.75C58.761 133.163 58.4876 133.493 58.1343 133.74C57.7876 133.98 57.3876 134.1 56.9343 134.1ZM56.5743 133.16C56.8076 133.16 57.0176 133.11 57.2043 133.01C57.3976 132.91 57.561 132.777 57.6943 132.61C57.8343 132.443 57.941 132.253 58.0143 132.04C58.0876 131.827 58.1243 131.607 58.1243 131.38C58.1243 131.14 58.0843 130.913 58.0043 130.7C57.9243 130.487 57.8076 130.3 57.6543 130.14C57.5076 129.98 57.3343 129.853 57.1343 129.76C56.941 129.667 56.7276 129.62 56.4943 129.62C56.3543 129.62 56.2076 129.647 56.0543 129.7C55.901 129.753 55.7576 129.827 55.6243 129.92C55.491 130.013 55.3743 130.123 55.2743 130.25C55.1743 130.377 55.1043 130.51 55.0643 130.65V132.02C55.1576 132.233 55.281 132.427 55.4343 132.6C55.5876 132.767 55.7643 132.903 55.9643 133.01C56.1643 133.11 56.3676 133.16 56.5743 133.16ZM62.4936 134.1C62.0803 134.1 61.7103 134.03 61.3836 133.89C61.0569 133.743 60.7736 133.543 60.5336 133.29C60.3003 133.037 60.1203 132.75 59.9936 132.43C59.8669 132.103 59.8036 131.757 59.8036 131.39C59.8036 131.023 59.8669 130.677 59.9936 130.35C60.1203 130.023 60.3003 129.737 60.5336 129.49C60.7736 129.237 61.0569 129.04 61.3836 128.9C61.7169 128.753 62.0869 128.68 62.4936 128.68C62.9003 128.68 63.2669 128.753 63.5936 128.9C63.9269 129.04 64.2103 129.237 64.4436 129.49C64.6836 129.737 64.8669 130.023 64.9936 130.35C65.1203 130.677 65.1836 131.023 65.1836 131.39C65.1836 131.757 65.1203 132.103 64.9936 132.43C64.8669 132.75 64.6836 133.037 64.4436 133.29C64.2103 133.543 63.9269 133.743 63.5936 133.89C63.2669 134.03 62.9003 134.1 62.4936 134.1ZM60.9336 131.4C60.9336 131.733 61.0036 132.033 61.1436 132.3C61.2836 132.567 61.4703 132.777 61.7036 132.93C61.9369 133.083 62.2003 133.16 62.4936 133.16C62.7803 133.16 63.0403 133.083 63.2736 132.93C63.5136 132.77 63.7036 132.557 63.8436 132.29C63.9836 132.017 64.0536 131.717 64.0536 131.39C64.0536 131.057 63.9836 130.757 63.8436 130.49C63.7036 130.223 63.5136 130.013 63.2736 129.86C63.0403 129.7 62.7803 129.62 62.4936 129.62C62.2003 129.62 61.9369 129.7 61.7036 129.86C61.4703 130.02 61.2836 130.233 61.1436 130.5C61.0036 130.76 60.9336 131.06 60.9336 131.4ZM66.0592 134V128.77H68.8592C69.1925 128.77 69.4659 128.833 69.6792 128.96C69.8992 129.08 70.0625 129.237 70.1692 129.43C70.2759 129.617 70.3292 129.823 70.3292 130.05C70.3292 130.337 70.2625 130.59 70.1292 130.81C69.9959 131.03 69.7992 131.197 69.5392 131.31C69.8392 131.397 70.0825 131.55 70.2692 131.77C70.4625 131.983 70.5592 132.26 70.5592 132.6C70.5592 132.907 70.4859 133.167 70.3392 133.38C70.1925 133.587 69.9825 133.743 69.7092 133.85C69.4425 133.95 69.1292 134 68.7692 134H66.0592ZM67.0992 133.24H68.7392C68.8792 133.24 69.0059 133.207 69.1192 133.14C69.2392 133.067 69.3325 132.973 69.3992 132.86C69.4659 132.74 69.4992 132.613 69.4992 132.48C69.4992 132.333 69.4659 132.203 69.3992 132.09C69.3392 131.977 69.2525 131.887 69.1392 131.82C69.0325 131.753 68.9059 131.72 68.7592 131.72H67.0992V133.24ZM67.0992 131.01H68.5792C68.7192 131.01 68.8425 130.977 68.9492 130.91C69.0559 130.837 69.1392 130.74 69.1992 130.62C69.2592 130.5 69.2892 130.373 69.2892 130.24C69.2892 130.047 69.2259 129.88 69.0992 129.74C68.9725 129.6 68.8059 129.53 68.5992 129.53H67.0992V131.01ZM73.8561 134.1C73.4428 134.1 73.0728 134.03 72.7461 133.89C72.4194 133.743 72.1361 133.543 71.8961 133.29C71.6628 133.037 71.4828 132.75 71.3561 132.43C71.2294 132.103 71.1661 131.757 71.1661 131.39C71.1661 131.023 71.2294 130.677 71.3561 130.35C71.4828 130.023 71.6628 129.737 71.8961 129.49C72.1361 129.237 72.4194 129.04 72.7461 128.9C73.0794 128.753 73.4494 128.68 73.8561 128.68C74.2628 128.68 74.6294 128.753 74.9561 128.9C75.2894 129.04 75.5728 129.237 75.8061 129.49C76.0461 129.737 76.2294 130.023 76.3561 130.35C76.4828 130.677 76.5461 131.023 76.5461 131.39C76.5461 131.757 76.4828 132.103 76.3561 132.43C76.2294 132.75 76.0461 133.037 75.8061 133.29C75.5728 133.543 75.2894 133.743 74.9561 133.89C74.6294 134.03 74.2628 134.1 73.8561 134.1ZM72.2961 131.4C72.2961 131.733 72.3661 132.033 72.5061 132.3C72.6461 132.567 72.8328 132.777 73.0661 132.93C73.2994 133.083 73.5628 133.16 73.8561 133.16C74.1428 133.16 74.4028 133.083 74.6361 132.93C74.8761 132.77 75.0661 132.557 75.2061 132.29C75.3461 132.017 75.4161 131.717 75.4161 131.39C75.4161 131.057 75.3461 130.757 75.2061 130.49C75.0661 130.223 74.8761 130.013 74.6361 129.86C74.4028 129.7 74.1428 129.62 73.8561 129.62C73.5628 129.62 73.2994 129.7 73.0661 129.86C72.8328 130.02 72.6461 130.233 72.5061 130.5C72.3661 130.76 72.2961 131.06 72.2961 131.4Z" fill="white"/>
<path d="M243.892 117.676V112.446H247.232V113.416H244.992V117.676H243.892ZM247.912 117.676V116.396H248.822V117.676H247.912ZM258.331 110.576V117.676H257.201V114.546H253.621V117.676H252.501V110.576H253.621V113.546H257.201V110.576H258.331ZM259.254 116.146C259.254 115.812 259.348 115.522 259.534 115.276C259.728 115.022 259.991 114.829 260.324 114.696C260.658 114.556 261.044 114.486 261.484 114.486C261.718 114.486 261.954 114.502 262.194 114.536C262.441 114.569 262.658 114.622 262.844 114.696V114.366C262.844 113.999 262.734 113.712 262.514 113.506C262.294 113.299 261.978 113.196 261.564 113.196C261.271 113.196 260.994 113.249 260.734 113.356C260.474 113.456 260.198 113.599 259.904 113.786L259.534 113.046C259.881 112.812 260.228 112.639 260.574 112.526C260.928 112.412 261.298 112.356 261.684 112.356C262.384 112.356 262.934 112.542 263.334 112.916C263.741 113.282 263.944 113.806 263.944 114.486V116.436C263.944 116.562 263.964 116.652 264.004 116.706C264.051 116.759 264.128 116.789 264.234 116.796V117.676C264.134 117.696 264.044 117.709 263.964 117.716C263.884 117.722 263.818 117.726 263.764 117.726C263.531 117.726 263.354 117.669 263.234 117.556C263.114 117.442 263.044 117.309 263.024 117.156L262.994 116.856C262.768 117.149 262.478 117.376 262.124 117.536C261.771 117.696 261.414 117.776 261.054 117.776C260.708 117.776 260.398 117.706 260.124 117.566C259.851 117.419 259.638 117.222 259.484 116.976C259.331 116.729 259.254 116.452 259.254 116.146ZM262.584 116.466C262.664 116.379 262.728 116.292 262.774 116.206C262.821 116.119 262.844 116.042 262.844 115.976V115.376C262.658 115.302 262.461 115.249 262.254 115.216C262.048 115.176 261.844 115.156 261.644 115.156C261.244 115.156 260.918 115.236 260.664 115.396C260.418 115.556 260.294 115.776 260.294 116.056C260.294 116.209 260.334 116.356 260.414 116.496C260.501 116.636 260.621 116.749 260.774 116.836C260.934 116.922 261.131 116.966 261.364 116.966C261.604 116.966 261.834 116.919 262.054 116.826C262.274 116.732 262.451 116.612 262.584 116.466ZM265.799 112.446L267.039 114.236L267.129 114.406L267.219 114.236L268.449 112.446H269.639L267.759 115.066L269.659 117.676H268.469L267.219 115.896L267.129 115.736L267.039 115.896L265.789 117.676H264.599L266.499 115.076L264.619 112.446H265.799ZM272.653 117.776C272.24 117.776 271.87 117.706 271.543 117.566C271.217 117.419 270.933 117.219 270.693 116.966C270.46 116.712 270.28 116.426 270.153 116.106C270.027 115.779 269.963 115.432 269.963 115.066C269.963 114.699 270.027 114.352 270.153 114.026C270.28 113.699 270.46 113.412 270.693 113.166C270.933 112.912 271.217 112.716 271.543 112.576C271.877 112.429 272.247 112.356 272.653 112.356C273.06 112.356 273.427 112.429 273.753 112.576C274.087 112.716 274.37 112.912 274.603 113.166C274.843 113.412 275.027 113.699 275.153 114.026C275.28 114.352 275.343 114.699 275.343 115.066C275.343 115.432 275.28 115.779 275.153 116.106C275.027 116.426 274.843 116.712 274.603 116.966C274.37 117.219 274.087 117.419 273.753 117.566C273.427 117.706 273.06 117.776 272.653 117.776ZM271.093 115.076C271.093 115.409 271.163 115.709 271.303 115.976C271.443 116.242 271.63 116.452 271.863 116.606C272.097 116.759 272.36 116.836 272.653 116.836C272.94 116.836 273.2 116.759 273.433 116.606C273.673 116.446 273.863 116.232 274.003 115.966C274.143 115.692 274.213 115.392 274.213 115.066C274.213 114.732 274.143 114.432 274.003 114.166C273.863 113.899 273.673 113.689 273.433 113.536C273.2 113.376 272.94 113.296 272.653 113.296C272.36 113.296 272.097 113.376 271.863 113.536C271.63 113.696 271.443 113.909 271.303 114.176C271.163 114.436 271.093 114.736 271.093 115.076ZM275.719 118.926V116.706H275.839C275.979 116.706 276.109 116.666 276.229 116.586C276.349 116.506 276.456 116.369 276.549 116.176C276.642 115.976 276.719 115.702 276.779 115.356C276.839 115.002 276.876 114.559 276.889 114.026L276.949 112.446H280.679V116.706H281.399V118.926H280.429V117.676H276.679V118.926H275.719ZM277.289 116.706H279.579V113.396H277.919L277.889 114.126C277.869 114.632 277.832 115.059 277.779 115.406C277.732 115.752 277.666 116.029 277.579 116.236C277.499 116.442 277.402 116.599 277.289 116.706ZM282.232 117.676V112.446H283.322V114.516H283.842L285.382 112.446H286.602L284.692 114.976L286.822 117.676H285.552L283.832 115.506H283.322V117.676H282.232ZM287.162 116.146C287.162 115.812 287.256 115.522 287.442 115.276C287.636 115.022 287.899 114.829 288.232 114.696C288.566 114.556 288.952 114.486 289.392 114.486C289.626 114.486 289.862 114.502 290.102 114.536C290.349 114.569 290.566 114.622 290.752 114.696V114.366C290.752 113.999 290.642 113.712 290.422 113.506C290.202 113.299 289.886 113.196 289.472 113.196C289.179 113.196 288.902 113.249 288.642 113.356C288.382 113.456 288.106 113.599 287.812 113.786L287.442 113.046C287.789 112.812 288.136 112.639 288.482 112.526C288.836 112.412 289.206 112.356 289.592 112.356C290.292 112.356 290.842 112.542 291.242 112.916C291.649 113.282 291.852 113.806 291.852 114.486V116.436C291.852 116.562 291.872 116.652 291.912 116.706C291.959 116.759 292.036 116.789 292.142 116.796V117.676C292.042 117.696 291.952 117.709 291.872 117.716C291.792 117.722 291.726 117.726 291.672 117.726C291.439 117.726 291.262 117.669 291.142 117.556C291.022 117.442 290.952 117.309 290.932 117.156L290.902 116.856C290.676 117.149 290.386 117.376 290.032 117.536C289.679 117.696 289.322 117.776 288.962 117.776C288.616 117.776 288.306 117.706 288.032 117.566C287.759 117.419 287.546 117.222 287.392 116.976C287.239 116.729 287.162 116.452 287.162 116.146ZM290.492 116.466C290.572 116.379 290.636 116.292 290.682 116.206C290.729 116.119 290.752 116.042 290.752 115.976V115.376C290.566 115.302 290.369 115.249 290.162 115.216C289.956 115.176 289.752 115.156 289.552 115.156C289.152 115.156 288.826 115.236 288.572 115.396C288.326 115.556 288.202 115.776 288.202 116.056C288.202 116.209 288.242 116.356 288.322 116.496C288.409 116.636 288.529 116.749 288.682 116.836C288.842 116.922 289.039 116.966 289.272 116.966C289.512 116.966 289.742 116.919 289.962 116.826C290.182 116.732 290.359 116.612 290.492 116.466Z" fill="white"/>
<path d="M369.834 51.3398V46.1098H373.174V47.0798H370.934V51.3398H369.834ZM373.854 51.3398V50.0598H374.764V51.3398H373.854ZM379.163 51.3798V50.4398H379.673C379.84 50.4398 379.967 50.3998 380.053 50.3198C380.14 50.2398 380.223 50.1198 380.303 49.9598L380.513 49.4998L377.623 44.2398H378.863L381.023 48.3498L382.853 44.2398H384.043L381.163 50.4898C381.003 50.8165 380.827 51.0465 380.633 51.1798C380.447 51.3132 380.19 51.3798 379.863 51.3798H379.163ZM386.872 51.4398C386.465 51.4398 386.095 51.3698 385.762 51.2298C385.435 51.0832 385.152 50.8832 384.912 50.6298C384.672 50.3765 384.485 50.0865 384.352 49.7598C384.225 49.4332 384.162 49.0865 384.162 48.7198C384.162 48.2265 384.272 47.7765 384.492 47.3698C384.719 46.9632 385.032 46.6365 385.432 46.3898C385.839 46.1432 386.319 46.0198 386.872 46.0198C387.405 46.0198 387.869 46.1398 388.262 46.3798C388.662 46.6132 388.955 46.9265 389.142 47.3198L388.072 47.6598C387.952 47.4398 387.782 47.2698 387.562 47.1498C387.349 47.0232 387.112 46.9598 386.852 46.9598C386.559 46.9598 386.292 47.0365 386.052 47.1898C385.819 47.3365 385.632 47.5432 385.492 47.8098C385.359 48.0698 385.292 48.3732 385.292 48.7198C385.292 49.0532 385.362 49.3565 385.502 49.6298C385.642 49.8965 385.829 50.1098 386.062 50.2698C386.302 50.4232 386.569 50.4998 386.862 50.4998C387.042 50.4998 387.215 50.4698 387.382 50.4098C387.555 50.3432 387.705 50.2565 387.832 50.1498C387.959 50.0365 388.049 49.9132 388.102 49.7798L389.182 50.0998C389.069 50.3598 388.899 50.5898 388.672 50.7898C388.452 50.9898 388.189 51.1498 387.882 51.2698C387.582 51.3832 387.245 51.4398 386.872 51.4398ZM392.309 51.4398C391.903 51.4398 391.533 51.3698 391.199 51.2298C390.873 51.0832 390.589 50.8832 390.349 50.6298C390.109 50.3765 389.923 50.0865 389.789 49.7598C389.663 49.4332 389.599 49.0865 389.599 48.7198C389.599 48.2265 389.709 47.7765 389.929 47.3698C390.156 46.9632 390.469 46.6365 390.869 46.3898C391.276 46.1432 391.756 46.0198 392.309 46.0198C392.843 46.0198 393.306 46.1398 393.699 46.3798C394.099 46.6132 394.393 46.9265 394.579 47.3198L393.509 47.6598C393.389 47.4398 393.219 47.2698 392.999 47.1498C392.786 47.0232 392.549 46.9598 392.289 46.9598C391.996 46.9598 391.729 47.0365 391.489 47.1898C391.256 47.3365 391.069 47.5432 390.929 47.8098C390.796 48.0698 390.729 48.3732 390.729 48.7198C390.729 49.0532 390.799 49.3565 390.939 49.6298C391.079 49.8965 391.266 50.1098 391.499 50.2698C391.739 50.4232 392.006 50.4998 392.299 50.4998C392.479 50.4998 392.653 50.4698 392.819 50.4098C392.993 50.3432 393.143 50.2565 393.269 50.1498C393.396 50.0365 393.486 49.9132 393.539 49.7798L394.619 50.0998C394.506 50.3598 394.336 50.5898 394.109 50.7898C393.889 50.9898 393.626 51.1498 393.319 51.2698C393.019 51.3832 392.683 51.4398 392.309 51.4398ZM396.037 53.5598C395.917 53.5598 395.791 53.5432 395.657 53.5098C395.524 53.4765 395.384 53.4265 395.237 53.3598L395.517 52.5398C395.597 52.5798 395.674 52.6098 395.747 52.6298C395.821 52.6498 395.887 52.6598 395.947 52.6598C396.114 52.6598 396.264 52.5898 396.397 52.4498C396.537 52.3165 396.661 52.1132 396.767 51.8398L396.967 51.2998L394.757 46.1098H395.907L397.507 50.2198L398.927 46.1098H399.987L397.687 52.1398C397.574 52.4532 397.431 52.7132 397.257 52.9198C397.091 53.1265 396.904 53.2832 396.697 53.3898C396.491 53.5032 396.271 53.5598 396.037 53.5598ZM403.666 51.4398C403.246 51.4398 402.876 51.3398 402.556 51.1398C402.236 50.9398 401.983 50.6798 401.796 50.3598V53.4698H400.696V46.1098H401.666V47.0498C401.866 46.7365 402.126 46.4865 402.446 46.2998C402.766 46.1132 403.123 46.0198 403.516 46.0198C403.876 46.0198 404.206 46.0932 404.506 46.2398C404.806 46.3798 405.066 46.5765 405.286 46.8298C405.506 47.0832 405.676 47.3732 405.796 47.6998C405.923 48.0198 405.986 48.3598 405.986 48.7198C405.986 49.2198 405.886 49.6765 405.686 50.0898C405.493 50.5032 405.22 50.8332 404.866 51.0798C404.52 51.3198 404.12 51.4398 403.666 51.4398ZM403.306 50.4998C403.54 50.4998 403.75 50.4498 403.936 50.3498C404.13 50.2498 404.293 50.1165 404.426 49.9498C404.566 49.7832 404.673 49.5932 404.746 49.3798C404.82 49.1665 404.856 48.9465 404.856 48.7198C404.856 48.4798 404.816 48.2532 404.736 48.0398C404.656 47.8265 404.54 47.6398 404.386 47.4798C404.24 47.3198 404.066 47.1932 403.866 47.0998C403.673 47.0065 403.46 46.9598 403.226 46.9598C403.086 46.9598 402.94 46.9865 402.786 47.0398C402.633 47.0932 402.49 47.1665 402.356 47.2598C402.223 47.3532 402.106 47.4632 402.006 47.5898C401.906 47.7165 401.836 47.8498 401.796 47.9898V49.3598C401.89 49.5732 402.013 49.7665 402.166 49.9398C402.32 50.1065 402.496 50.2432 402.696 50.3498C402.896 50.4498 403.1 50.4998 403.306 50.4998ZM406.876 51.3398V46.1198H407.976V49.8698L410.626 46.1098H411.626V51.3398H410.526V47.6698L407.906 51.3398H406.876ZM412.84 51.3398V46.1198H413.94V49.8698L416.59 46.1098H417.59V51.3398H416.49V47.6698L413.87 51.3398H412.84ZM415.22 45.5698C414.727 45.5698 414.343 45.4465 414.07 45.1998C413.803 44.9532 413.67 44.6432 413.67 44.2698H414.39C414.39 44.4632 414.453 44.6232 414.58 44.7498C414.713 44.8765 414.927 44.9398 415.22 44.9398C415.507 44.9398 415.71 44.8798 415.83 44.7598C415.957 44.6398 416.033 44.4765 416.06 44.2698H416.78C416.78 44.6432 416.643 44.9532 416.37 45.1998C416.103 45.4465 415.72 45.5698 415.22 45.5698ZM421.174 51.4398C420.768 51.4398 420.398 51.3698 420.064 51.2298C419.738 51.0832 419.454 50.8832 419.214 50.6298C418.974 50.3765 418.788 50.0865 418.654 49.7598C418.528 49.4332 418.464 49.0865 418.464 48.7198C418.464 48.2265 418.574 47.7765 418.794 47.3698C419.021 46.9632 419.334 46.6365 419.734 46.3898C420.141 46.1432 420.621 46.0198 421.174 46.0198C421.708 46.0198 422.171 46.1398 422.564 46.3798C422.964 46.6132 423.258 46.9265 423.444 47.3198L422.374 47.6598C422.254 47.4398 422.084 47.2698 421.864 47.1498C421.651 47.0232 421.414 46.9598 421.154 46.9598C420.861 46.9598 420.594 47.0365 420.354 47.1898C420.121 47.3365 419.934 47.5432 419.794 47.8098C419.661 48.0698 419.594 48.3732 419.594 48.7198C419.594 49.0532 419.664 49.3565 419.804 49.6298C419.944 49.8965 420.131 50.1098 420.364 50.2698C420.604 50.4232 420.871 50.4998 421.164 50.4998C421.344 50.4998 421.518 50.4698 421.684 50.4098C421.858 50.3432 422.008 50.2565 422.134 50.1498C422.261 50.0365 422.351 49.9132 422.404 49.7798L423.484 50.0998C423.371 50.3598 423.201 50.5898 422.974 50.7898C422.754 50.9898 422.491 51.1498 422.184 51.2698C421.884 51.3832 421.548 51.4398 421.174 51.4398ZM424.29 51.3398V46.1098H425.38V48.1798H425.9L427.44 46.1098H428.66L426.75 48.6398L428.88 51.3398H427.61L425.89 49.1698H425.38V51.3398H424.29Z" fill="white"/>
</g>
<defs>
<clipPath id="clip0_254_5036">
<rect width="20.1892" height="20.1892" fill="white" transform="translate(27.8803 88.4478)"/>
</clipPath>
<clipPath id="clip1_254_5036">
<rect width="20.1892" height="20.1892" fill="white" transform="translate(259.095 73.0654)"/>
</clipPath>
</defs>
</svg>
