<svg width="24" height="24" viewBox="0 0 24 24" fill="none" xmlns="http://www.w3.org/2000/svg">
<g id="icon-circle">
<circle id="Ellipse 1" cx="12" cy="12" r="12" fill="#FFD300"/>
<path id="Arrow 1" d="M9.35355 8.64645C9.15829 8.45118 8.84171 8.45118 8.64645 8.64645C8.45118 8.84171 8.45118 9.15829 8.64645 9.35355L9.35355 8.64645ZM15 15.5C15.2761 15.5 15.5 15.2761 15.5 15L15.5 10.5C15.5 10.2239 15.2761 10 15 10C14.7239 10 14.5 10.2239 14.5 10.5L14.5 14.5L10.5 14.5C10.2239 14.5 10 14.7239 10 15C10 15.2761 10.2239 15.5 10.5 15.5L15 15.5ZM8.64645 9.35355L14.6464 15.3536L15.3536 14.6464L9.35355 8.64645L8.64645 9.35355Z" fill="white"/>
</g>
</svg>
