<svg width="24" height="25" viewBox="0 0 24 25" fill="none" xmlns="http://www.w3.org/2000/svg">
<path d="M12 1.5C9.82441 1.5 7.69767 2.14514 5.88873 3.35383C4.07979 4.56253 2.66989 6.2805 1.83733 8.29048C1.00476 10.3005 0.786926 12.5122 1.21136 14.646C1.6358 16.7798 2.68345 18.7398 4.22183 20.2782C5.7602 21.8166 7.72022 22.8642 9.85401 23.2886C11.9878 23.7131 14.1995 23.4952 16.2095 22.6627C18.2195 21.8301 19.9375 20.4202 21.1462 18.6113C22.3549 16.8023 23 14.6756 23 12.5C22.9966 9.58368 21.8365 6.78778 19.7744 4.72563C17.7122 2.66347 14.9163 1.50344 12 1.5ZM15.707 16.207C15.5195 16.3945 15.2652 16.4998 15 16.4998C14.7348 16.4998 14.4805 16.3945 14.293 16.207L11.293 13.207C11.1055 13.0195 11.0001 12.7652 11 12.5V6.5C11 6.23478 11.1054 5.98043 11.2929 5.79289C11.4804 5.60536 11.7348 5.5 12 5.5C12.2652 5.5 12.5196 5.60536 12.7071 5.79289C12.8946 5.98043 13 6.23478 13 6.5V12.086L15.707 14.793C15.8945 14.9805 15.9998 15.2348 15.9998 15.5C15.9998 15.7652 15.8945 16.0195 15.707 16.207Z" fill="#1F1F1F"/>
<path d="M12 1.5C9.82441 1.5 7.69767 2.14514 5.88873 3.35383C4.07979 4.56253 2.66989 6.2805 1.83733 8.29048C1.00476 10.3005 0.786926 12.5122 1.21136 14.646C1.6358 16.7798 2.68345 18.7398 4.22183 20.2782C5.7602 21.8166 7.72022 22.8642 9.85401 23.2886C11.9878 23.7131 14.1995 23.4952 16.2095 22.6627C18.2195 21.8301 19.9375 20.4202 21.1462 18.6113C22.3549 16.8023 23 14.6756 23 12.5C22.9966 9.58368 21.8365 6.78778 19.7744 4.72563C17.7122 2.66347 14.9163 1.50344 12 1.5ZM15.707 16.207C15.5195 16.3945 15.2652 16.4998 15 16.4998C14.7348 16.4998 14.4805 16.3945 14.293 16.207L11.293 13.207C11.1055 13.0195 11.0001 12.7652 11 12.5V6.5C11 6.23478 11.1054 5.98043 11.2929 5.79289C11.4804 5.60536 11.7348 5.5 12 5.5C12.2652 5.5 12.5196 5.60536 12.7071 5.79289C12.8946 5.98043 13 6.23478 13 6.5V12.086L15.707 14.793C15.8945 14.9805 15.9998 15.2348 15.9998 15.5C15.9998 15.7652 15.8945 16.0195 15.707 16.207Z" fill="black" fill-opacity="0.2"/>
</svg>
