<svg width="24" height="24" viewBox="0 0 24 24" fill="none" xmlns="http://www.w3.org/2000/svg">
<path d="M12 0C9.66645 0 7.42845 0.92701 5.77837 2.5771C4.12828 4.22719 3.20127 6.46519 3.20127 8.79876C3.20127 13.4461 11.0402 23.2767 11.3761 23.7007C11.4511 23.7941 11.546 23.8695 11.654 23.9213C11.762 23.9731 11.8803 24 12 24C12.1198 24 12.238 23.9731 12.346 23.9213C12.454 23.8695 12.549 23.7941 12.6239 23.7007C12.9599 23.2767 20.7988 13.4461 20.7988 8.79876C20.7988 6.46519 19.8718 4.22719 18.2217 2.5771C16.5716 0.92701 14.3336 0 12 0ZM12 11.1984C11.3672 11.1984 10.7486 11.0108 10.2225 10.6592C9.69629 10.3076 9.2862 9.80793 9.04403 9.22329C8.80186 8.63865 8.7385 7.99533 8.86196 7.37467C8.98541 6.75402 9.29014 6.18392 9.73761 5.73645C10.1851 5.28899 10.7552 4.98426 11.3758 4.8608C11.9965 4.73735 12.6398 4.80071 13.2244 5.04288C13.8091 5.28504 14.3088 5.69514 14.6604 6.2213C15.0119 6.74746 15.1996 7.36606 15.1996 7.99887C15.1996 8.84745 14.8625 9.66127 14.2625 10.2613C13.6624 10.8613 12.8486 11.1984 12 11.1984Z" fill="#1F1F1F"/>
<path d="M12 0C9.66645 0 7.42845 0.92701 5.77837 2.5771C4.12828 4.22719 3.20127 6.46519 3.20127 8.79876C3.20127 13.4461 11.0402 23.2767 11.3761 23.7007C11.4511 23.7941 11.546 23.8695 11.654 23.9213C11.762 23.9731 11.8803 24 12 24C12.1198 24 12.238 23.9731 12.346 23.9213C12.454 23.8695 12.549 23.7941 12.6239 23.7007C12.9599 23.2767 20.7988 13.4461 20.7988 8.79876C20.7988 6.46519 19.8718 4.22719 18.2217 2.5771C16.5716 0.92701 14.3336 0 12 0ZM12 11.1984C11.3672 11.1984 10.7486 11.0108 10.2225 10.6592C9.69629 10.3076 9.2862 9.80793 9.04403 9.22329C8.80186 8.63865 8.7385 7.99533 8.86196 7.37467C8.98541 6.75402 9.29014 6.18392 9.73761 5.73645C10.1851 5.28899 10.7552 4.98426 11.3758 4.8608C11.9965 4.73735 12.6398 4.80071 13.2244 5.04288C13.8091 5.28504 14.3088 5.69514 14.6604 6.2213C15.0119 6.74746 15.1996 7.36606 15.1996 7.99887C15.1996 8.84745 14.8625 9.66127 14.2625 10.2613C13.6624 10.8613 12.8486 11.1984 12 11.1984Z" fill="black" fill-opacity="0.2"/>
</svg>
