<svg width="24" height="25" viewBox="0 0 24 25" fill="none" xmlns="http://www.w3.org/2000/svg">
<path fill-rule="evenodd" clip-rule="evenodd" d="M12 23.5C18.0751 23.5 23 18.5751 23 12.5C23 6.42487 18.0751 1.5 12 1.5C5.92487 1.5 1 6.42487 1 12.5C1 18.5751 5.92487 23.5 12 23.5ZM8 12.5852V13.7588H9.23228V14.6977H8V15.7246H9.23228V17.4997H10.5526V15.7246H12.8558V14.6977H10.5526V13.7588H12.1223H12.9291C13.5942 13.7588 14.1516 13.6024 14.6015 13.2894C15.0612 12.9667 15.4083 12.551 15.6431 12.0424C15.8778 11.5241 15.9951 10.9813 15.9951 10.4141C15.9951 10.0033 15.9218 9.60233 15.7751 9.21113C15.6382 8.81015 15.4328 8.45318 15.159 8.14022C14.8851 7.81748 14.5526 7.5632 14.1614 7.37738C13.78 7.18178 13.3399 7.08398 12.8411 7.08398H9.23228V12.5852H8ZM10.5526 12.5852H12.1223H12.8558C13.3154 12.5852 13.6773 12.4874 13.9414 12.2918C14.2054 12.0962 14.3912 11.8322 14.4988 11.4997C14.6064 11.1671 14.6602 10.8053 14.6602 10.4141C14.6602 10.0033 14.5917 9.63656 14.4548 9.31382C14.3277 8.9813 14.1223 8.72214 13.8387 8.53631C13.555 8.35049 13.1932 8.25758 12.7531 8.25758H10.5526V12.5852Z" fill="#1F1F1F"/>
<path fill-rule="evenodd" clip-rule="evenodd" d="M12 23.5C18.0751 23.5 23 18.5751 23 12.5C23 6.42487 18.0751 1.5 12 1.5C5.92487 1.5 1 6.42487 1 12.5C1 18.5751 5.92487 23.5 12 23.5ZM8 12.5852V13.7588H9.23228V14.6977H8V15.7246H9.23228V17.4997H10.5526V15.7246H12.8558V14.6977H10.5526V13.7588H12.1223H12.9291C13.5942 13.7588 14.1516 13.6024 14.6015 13.2894C15.0612 12.9667 15.4083 12.551 15.6431 12.0424C15.8778 11.5241 15.9951 10.9813 15.9951 10.4141C15.9951 10.0033 15.9218 9.60233 15.7751 9.21113C15.6382 8.81015 15.4328 8.45318 15.159 8.14022C14.8851 7.81748 14.5526 7.5632 14.1614 7.37738C13.78 7.18178 13.3399 7.08398 12.8411 7.08398H9.23228V12.5852H8ZM10.5526 12.5852H12.1223H12.8558C13.3154 12.5852 13.6773 12.4874 13.9414 12.2918C14.2054 12.0962 14.3912 11.8322 14.4988 11.4997C14.6064 11.1671 14.6602 10.8053 14.6602 10.4141C14.6602 10.0033 14.5917 9.63656 14.4548 9.31382C14.3277 8.9813 14.1223 8.72214 13.8387 8.53631C13.555 8.35049 13.1932 8.25758 12.7531 8.25758H10.5526V12.5852Z" fill="black" fill-opacity="0.2"/>
</svg>
