<svg xmlns="http://www.w3.org/2000/svg" width="30" height="30" fill="none"><path fill="#1F1F1F" d="M15 0C6.716 0 0 6.716 0 15c0 8.284 6.716 15 15 15 8.284 0 15-6.716 15-15 0-8.284-6.716-15-15-15Zm-4.307 22.19a.564.564 0 0 1-.564.564H7.36a.564.564 0 0 1-.564-.565v-7.828a.564.564 0 0 1 .564-.564h2.768a.564.564 0 0 1 .564.564v7.828Zm12.51-7.28c-.15 2.034-.573 4.053-.777 6.085-.442 2.629-3.713 1.688-5.604 1.858-1.137 0-2.274.007-3.41-.007a1.234 1.234 0 0 1-.527-.159c-.816-.49-1.465-1.161-1.4-2.207.054-1.855.02-3.713.011-5.57 0-.415.15-.725.454-1.002 2.113-1.849 3.563-3.127 3.812-6.097.324-1.393 2.221-.436 2.294.645.55 2.36-1.309 4.537-.28 4.441 1.257.044 2.513.087 3.77.128.93.03 1.681.834 1.657 1.884Z"/><path fill="#000" fill-opacity=".2" d="M15 0C6.716 0 0 6.716 0 15c0 8.284 6.716 15 15 15 8.284 0 15-6.716 15-15 0-8.284-6.716-15-15-15Zm-4.307 22.19a.564.564 0 0 1-.564.564H7.36a.564.564 0 0 1-.564-.565v-7.828a.564.564 0 0 1 .564-.564h2.768a.564.564 0 0 1 .564.564v7.828Zm12.51-7.28c-.15 2.034-.573 4.053-.777 6.085-.442 2.629-3.713 1.688-5.604 1.858-1.137 0-2.274.007-3.41-.007a1.234 1.234 0 0 1-.527-.159c-.816-.49-1.465-1.161-1.4-2.207.054-1.855.02-3.713.011-5.57 0-.415.15-.725.454-1.002 2.113-1.849 3.563-3.127 3.812-6.097.324-1.393 2.221-.436 2.294.645.55 2.36-1.309 4.537-.28 4.441 1.257.044 2.513.087 3.77.128.93.03 1.681.834 1.657 1.884Z"/></svg>