<svg xmlns="http://www.w3.org/2000/svg" width="30" height="30" fill="none"><g clip-path="url(#a)"><path fill="#1F1F1F" d="M15 0C6.73 0 0 6.73 0 15s6.73 15 15 15 15-6.73 15-15S23.27 0 15 0Zm8.384 11.053-9.587 9.51a1.475 1.475 0 0 1-2.068.039l-5.075-4.625a1.525 1.525 0 0 1-.113-2.105 1.487 1.487 0 0 1 2.106-.075l4.022 3.684 8.572-8.571a1.498 1.498 0 0 1 2.143 0 1.498 1.498 0 0 1 0 2.143Z"/><path fill="#000" fill-opacity=".2" d="M15 0C6.73 0 0 6.73 0 15s6.73 15 15 15 15-6.73 15-15S23.27 0 15 0Zm8.384 11.053-9.587 9.51a1.475 1.475 0 0 1-2.068.039l-5.075-4.625a1.525 1.525 0 0 1-.113-2.105 1.487 1.487 0 0 1 2.106-.075l4.022 3.684 8.572-8.571a1.498 1.498 0 0 1 2.143 0 1.498 1.498 0 0 1 0 2.143Z"/></g><defs><clipPath id="a"><path fill="#fff" d="M0 0h30v30H0z"/></clipPath></defs></svg>