<svg xmlns="http://www.w3.org/2000/svg" width="30" height="30" fill="none"><path fill="#1F1F1F" fill-rule="evenodd" d="M15 30c8.284 0 15-6.716 15-15 0-8.284-6.716-15-15-15C6.716 0 0 6.716 0 15c0 8.284 6.716 15 15 15Zm-.531-12.515a.468.468 0 1 1-.937 0 .468.468 0 0 1 .937 0ZM14 12.983a.468.468 0 1 0 0-.937.468.468 0 0 0 0 .937ZM19.711 8c.345 0 .668.134.912.378.243.243.377.566.377.91v4.909c0 .344-.134.668-.378.911l-6.514 6.514a1.28 1.28 0 0 1-.911.378 1.28 1.28 0 0 1-.912-.378l-4.907-4.907A1.28 1.28 0 0 1 7 15.803c0-.344.134-.668.378-.911l6.514-6.514A1.28 1.28 0 0 1 14.803 8h4.908Zm-4.422 4.515A1.29 1.29 0 0 0 14 11.225a1.29 1.29 0 0 0-1.289 1.29c0 .71.578 1.288 1.289 1.288a1.29 1.29 0 0 0 1.289-1.288Zm-2.578 4.97c0 .71.578 1.289 1.289 1.289a1.29 1.29 0 0 0 1.289-1.289A1.29 1.29 0 0 0 14 16.196a1.29 1.29 0 0 0-1.289 1.29Zm-1.347-2.075h5.272a.41.41 0 1 0 0-.82h-5.272a.41.41 0 0 0 0 .82Zm6.62-4.803a.41.41 0 1 0 .82 0 .41.41 0 0 0-.82 0Z" clip-rule="evenodd"/><path fill="#000" fill-opacity=".2" fill-rule="evenodd" d="M15 30c8.284 0 15-6.716 15-15 0-8.284-6.716-15-15-15C6.716 0 0 6.716 0 15c0 8.284 6.716 15 15 15Zm-.531-12.515a.468.468 0 1 1-.937 0 .468.468 0 0 1 .937 0ZM14 12.983a.468.468 0 1 0 0-.937.468.468 0 0 0 0 .937ZM19.711 8c.345 0 .668.134.912.378.243.243.377.566.377.91v4.909c0 .344-.134.668-.378.911l-6.514 6.514a1.28 1.28 0 0 1-.911.378 1.28 1.28 0 0 1-.912-.378l-4.907-4.907A1.28 1.28 0 0 1 7 15.803c0-.344.134-.668.378-.911l6.514-6.514A1.28 1.28 0 0 1 14.803 8h4.908Zm-4.422 4.515A1.29 1.29 0 0 0 14 11.225a1.29 1.29 0 0 0-1.289 1.29c0 .71.578 1.288 1.289 1.288a1.29 1.29 0 0 0 1.289-1.288Zm-2.578 4.97c0 .71.578 1.289 1.289 1.289a1.29 1.29 0 0 0 1.289-1.289A1.29 1.29 0 0 0 14 16.196a1.29 1.29 0 0 0-1.289 1.29Zm-1.347-2.075h5.272a.41.41 0 1 0 0-.82h-5.272a.41.41 0 0 0 0 .82Zm6.62-4.803a.41.41 0 1 0 .82 0 .41.41 0 0 0-.82 0Z" clip-rule="evenodd"/></svg>