<svg width="24" height="24" viewBox="0 0 24 24" fill="none" xmlns="http://www.w3.org/2000/svg">
<g id="icon-circle">
<circle id="Ellipse 1" cx="12" cy="12" r="12" fill="#FFD300"/>
<path id="%" d="M9.30447 11.1507C8.87616 11.1507 8.48976 11.0594 8.14525 10.8767C7.80074 10.6849 7.52142 10.4338 7.30726 10.1233C7.10242 9.80365 7 9.45205 7 9.06849C7 8.68493 7.10242 8.3379 7.30726 8.0274C7.52142 7.70776 7.80074 7.45662 8.14525 7.27397C8.48976 7.09132 8.87616 7 9.30447 7C9.73277 7 10.1192 7.09132 10.4637 7.27397C10.8175 7.45662 11.0968 7.70776 11.3017 8.0274C11.5065 8.3379 11.6089 8.68493 11.6089 9.06849C11.6089 9.45205 11.5065 9.80365 11.3017 10.1233C11.0968 10.4338 10.8175 10.6849 10.4637 10.8767C10.1192 11.0594 9.73277 11.1507 9.30447 11.1507ZM9.30447 10.2329C9.49069 10.2329 9.65829 10.1781 9.80726 10.0685C9.95624 9.9589 10.0726 9.81735 10.1564 9.64384C10.2495 9.47032 10.2961 9.2831 10.2961 9.08219C10.2961 8.86301 10.2495 8.66667 10.1564 8.49315C10.0633 8.31963 9.94227 8.18265 9.7933 8.08219C9.64432 7.9726 9.48138 7.91781 9.30447 7.91781C9.11825 7.91781 8.95065 7.9726 8.80168 8.08219C8.6527 8.18265 8.53166 8.31963 8.43855 8.49315C8.35475 8.66667 8.31285 8.85845 8.31285 9.06849C8.31285 9.27854 8.3594 9.47489 8.45251 9.65753C8.54562 9.83105 8.66667 9.9726 8.81564 10.0822C8.96462 10.1826 9.12756 10.2329 9.30447 10.2329ZM14.6955 17C14.2672 17 13.8808 16.9087 13.5363 16.726C13.1918 16.5434 12.9125 16.2968 12.6983 15.9863C12.4935 15.6667 12.3911 15.3151 12.3911 14.9315C12.3911 14.5388 12.4935 14.1872 12.6983 13.8767C12.9125 13.5662 13.1918 13.3196 13.5363 13.137C13.8808 12.9452 14.2672 12.8493 14.6955 12.8493C15.1238 12.8493 15.5102 12.9452 15.8547 13.137C16.2086 13.3196 16.4879 13.5662 16.6927 13.8767C16.8976 14.1872 17 14.5342 17 14.9178C17 15.3014 16.8976 15.653 16.6927 15.9726C16.4879 16.2831 16.2086 16.5342 15.8547 16.726C15.5102 16.9087 15.1238 17 14.6955 17ZM14.6955 16.0822C14.8817 16.0822 15.0493 16.0274 15.1983 15.9178C15.3473 15.8082 15.4637 15.6667 15.5475 15.4931C15.6406 15.3196 15.6872 15.1324 15.6872 14.9315C15.6872 14.7123 15.6406 14.516 15.5475 14.3425C15.4637 14.1689 15.3426 14.032 15.1844 13.9315C15.0354 13.8219 14.8724 13.7671 14.6955 13.7671C14.5186 13.7671 14.351 13.8219 14.1927 13.9315C14.0438 14.032 13.9227 14.1735 13.8296 14.3562C13.7458 14.5297 13.7039 14.7169 13.7039 14.9178C13.7039 15.137 13.7505 15.3333 13.8436 15.5068C13.9367 15.6804 14.0577 15.8219 14.2067 15.9315C14.3557 16.032 14.5186 16.0822 14.6955 16.0822ZM8.2019 16.5774C7.97734 16.3792 7.95486 16.0369 8.15157 15.811L11.7207 11.7123L14.9961 7.48646C15.1894 7.23716 15.5524 7.2014 15.7905 7.40819C16.0191 7.60662 16.0441 7.95253 15.8464 8.18175L12.3771 12.2055L8.99072 16.506C8.79708 16.7519 8.43656 16.7845 8.2019 16.5774Z" fill="white"/>
</g>
</svg>
