<svg width="24" height="25" viewBox="0 0 24 25" fill="none" xmlns="http://www.w3.org/2000/svg">
    <circle cx="12" cy="12.5" r="12" fill="#1F1F1F" />
    <path d="M8.73962 9.87218C8.44472 9.87218 8.20537 10.1115 8.20537 10.4064V13.0776L5.96161 10.0859C5.82378 9.90213 5.58233 9.82625 5.36541 9.89998C5.25908 9.9354 5.16659 10.0034 5.10101 10.0943C5.03543 10.1851 5.0001 10.2944 5 10.4064V14.6802C5 14.9751 5.23935 15.2145 5.53425 15.2145C5.82914 15.2145 6.06849 14.9751 6.06849 14.6802V12.0091L8.31225 15.0008C8.36207 15.0671 8.4266 15.1209 8.50077 15.158C8.57493 15.1951 8.6567 15.2144 8.73962 15.2145C8.79626 15.2145 8.85286 15.2059 8.90845 15.1867C9.01478 15.1513 9.10728 15.0833 9.17286 14.9924C9.23843 14.9015 9.27377 14.7923 9.27387 14.6802V10.4064C9.27387 10.1115 9.03451 9.87218 8.73962 9.87218ZM13.0135 14.146H11.4108V10.9406H13.0135C13.3084 10.9406 13.5477 10.7013 13.5477 10.4064C13.5477 10.1115 13.3084 9.87218 13.0135 9.87218H10.8766C10.5817 9.87218 10.3423 10.1115 10.3423 10.4064V14.6802C10.3423 14.9751 10.5817 15.2145 10.8766 15.2145H13.0135C13.3084 15.2145 13.5477 14.9751 13.5477 14.6802C13.5477 14.3853 13.3084 14.146 13.0135 14.146Z" fill="#FFD300" />
    <path d="M13.0135 12.0095H10.8766C10.5817 12.0095 10.3423 12.2488 10.3423 12.5437C10.3423 12.8386 10.5817 13.0779 10.8766 13.0779H13.0135C13.3084 13.0779 13.5477 12.8386 13.5477 12.5437C13.5477 12.2488 13.3084 12.0095 13.0135 12.0095ZM19.5525 9.88857C19.264 9.817 18.9755 9.99009 18.905 10.2775L18.2821 12.7713L17.7938 11.3064C17.6485 10.8705 16.9262 10.8705 16.7799 11.3064L16.2916 12.7713L15.6687 10.2775C15.5971 9.99004 15.3022 9.8159 15.0212 9.88857C14.7349 9.96014 14.5618 10.2497 14.6323 10.5361L15.7007 14.8099C15.7584 15.0396 15.9614 15.2052 16.1986 15.2137C16.4668 15.2244 16.6516 15.0738 16.7265 14.8494L17.2874 13.1644L17.8483 14.8494C17.884 14.9558 17.9521 15.0483 18.0432 15.1139C18.1342 15.1795 18.2436 15.2148 18.3558 15.2148C18.3623 15.2148 18.3697 15.2148 18.3751 15.2137C18.4906 15.2095 18.6017 15.1679 18.6915 15.095C18.7813 15.0222 18.845 14.9221 18.873 14.8099L19.9414 10.5361C19.9585 10.468 19.962 10.3972 19.9517 10.3278C19.9414 10.2584 19.9175 10.1917 19.8814 10.1315C19.8452 10.0714 19.7976 10.019 19.7411 9.97726C19.6847 9.93557 19.6206 9.90543 19.5525 9.88857Z" fill="#FFD300" />
</svg>