<svg xmlns="http://www.w3.org/2000/svg" width="30" height="30" fill="none"><path fill="#1F1F1F" fill-rule="evenodd" d="M15 30c8.284 0 15-6.716 15-15 0-8.284-6.716-15-15-15C6.716 0 0 6.716 0 15c0 8.284 6.716 15 15 15Zm6.984-18.545v.03c0 .032 0 .048.016.079v7.257a.469.469 0 0 1-.265.42l-6.603 3.27-.022.013c-.018.01-.033.019-.056.019l-.03.015a.428.428 0 0 1-.312-.03l-6.557-3.271a.459.459 0 0 1-.264-.42v-7.273c0-.016.004-.028.007-.04.004-.011.008-.023.008-.038v-.031c0-.031.016-.063.031-.094v-.015a.413.413 0 0 0 .04-.047.413.413 0 0 1 .038-.047l.016-.015c.008-.008.02-.016.031-.024a.208.208 0 0 0 .031-.023l.016-.016h.015l.016-.015 2.694-1.34.016.016 6.727 3.473v3.535c0 .031 0 .062.016.078.047.078.14.109.218.062l1.34-.7a.163.163 0 0 0 .077-.14v-3.66c-.008-.008-.012-.016-.016-.024a.082.082 0 0 0-.015-.023c-.008 0-.012-.004-.016-.008s-.008-.008-.015-.008l-.016-.015-6.65-3.41 2.227-1.107a.496.496 0 0 1 .42 0l6.62 3.286.015.016h.015l.016.016.031.023c.012.008.024.015.031.023l.016.016a.339.339 0 0 1 .062.078v.015a.22.22 0 0 1 .016.047.211.211 0 0 0 .015.047Z" clip-rule="evenodd"/><path fill="#000" fill-opacity=".2" fill-rule="evenodd" d="M15 30c8.284 0 15-6.716 15-15 0-8.284-6.716-15-15-15C6.716 0 0 6.716 0 15c0 8.284 6.716 15 15 15Zm6.984-18.545v.03c0 .032 0 .048.016.079v7.257a.469.469 0 0 1-.265.42l-6.603 3.27-.022.013c-.018.01-.033.019-.056.019l-.03.015a.428.428 0 0 1-.312-.03l-6.557-3.271a.459.459 0 0 1-.264-.42v-7.273c0-.016.004-.028.007-.04.004-.011.008-.023.008-.038v-.031c0-.031.016-.063.031-.094v-.015a.413.413 0 0 0 .04-.047.413.413 0 0 1 .038-.047l.016-.015c.008-.008.02-.016.031-.024a.208.208 0 0 0 .031-.023l.016-.016h.015l.016-.015 2.694-1.34.016.016 6.727 3.473v3.535c0 .031 0 .062.016.078.047.078.14.109.218.062l1.34-.7a.163.163 0 0 0 .077-.14v-3.66c-.008-.008-.012-.016-.016-.024a.082.082 0 0 0-.015-.023c-.008 0-.012-.004-.016-.008s-.008-.008-.015-.008l-.016-.015-6.65-3.41 2.227-1.107a.496.496 0 0 1 .42 0l6.62 3.286.015.016h.015l.016.016.031.023c.012.008.024.015.031.023l.016.016a.339.339 0 0 1 .062.078v.015a.22.22 0 0 1 .016.047.211.211 0 0 0 .015.047Z" clip-rule="evenodd"/></svg>